<mxfile host="app.diagrams.net" modified="2022-01-21T08:41:16.735Z" agent="5.0 (Macintosh; Intel Mac OS X 10_15_7) AppleWebKit/537.36 (KHTML, like Gecko) Chrome/94.0.4606.61 Safari/537.36" etag="AE7ETgQjcUyS6zPzGYJJ" version="16.4.3" type="github" pages="2">
  <diagram id="UhGdTRR8SlhTP3d6VNUI" name="Page-1">
    <mxGraphModel dx="3169" dy="1764" grid="1" gridSize="10" guides="1" tooltips="1" connect="1" arrows="1" fold="1" page="1" pageScale="1" pageWidth="2336" pageHeight="1654" background="none" math="0" shadow="0">
      <root>
        <mxCell id="0" />
        <mxCell id="1" parent="0" />
        <mxCell id="RT_vrtGyYzo0KyHQsd38-3" value="Â IndentSettings" style="swimlane;fontStyle=1;align=center;verticalAlign=top;childLayout=stackLayout;horizontal=1;startSize=26;horizontalStack=0;resizeParent=1;resizeParentMax=0;resizeLast=0;collapsible=1;marginBottom=0;" parent="1" vertex="1">
          <mxGeometry x="1510" y="270" width="200" height="150" as="geometry" />
        </mxCell>
        <mxCell id="RT_vrtGyYzo0KyHQsd38-4" value="margin &#xa;paddings" style="text;strokeColor=none;fillColor=none;align=left;verticalAlign=top;spacingLeft=4;spacingRight=4;overflow=hidden;rotatable=0;points=[[0,0.5],[1,0.5]];portConstraint=eastwest;fontStyle=0" parent="RT_vrtGyYzo0KyHQsd38-3" vertex="1">
          <mxGeometry y="26" width="200" height="44" as="geometry" />
        </mxCell>
        <mxCell id="RT_vrtGyYzo0KyHQsd38-5" value="" style="line;strokeWidth=1;fillColor=none;align=left;verticalAlign=middle;spacingTop=-1;spacingLeft=3;spacingRight=3;rotatable=0;labelPosition=right;points=[];portConstraint=eastwest;" parent="RT_vrtGyYzo0KyHQsd38-3" vertex="1">
          <mxGeometry y="70" width="200" height="8" as="geometry" />
        </mxCell>
        <mxCell id="RT_vrtGyYzo0KyHQsd38-6" value="getMargin()&#xa;getPaddings()&#xa;setMargin()&#xa;setPaddings()" style="text;strokeColor=none;fillColor=none;align=left;verticalAlign=top;spacingLeft=4;spacingRight=4;overflow=hidden;rotatable=0;points=[[0,0.5],[1,0.5]];portConstraint=eastwest;" parent="RT_vrtGyYzo0KyHQsd38-3" vertex="1">
          <mxGeometry y="78" width="200" height="72" as="geometry" />
        </mxCell>
        <mxCell id="RT_vrtGyYzo0KyHQsd38-8" value="FontSettings" style="swimlane;fontStyle=1;align=center;verticalAlign=top;childLayout=stackLayout;horizontal=1;startSize=26;horizontalStack=0;resizeParent=1;resizeParentMax=0;resizeLast=0;collapsible=1;marginBottom=0;" parent="1" vertex="1">
          <mxGeometry x="1511" y="460" width="200" height="270" as="geometry" />
        </mxCell>
        <mxCell id="RT_vrtGyYzo0KyHQsd38-9" value="fontSize&#xa;lineHeight&#xa;letterSpacing&#xa;fontWeight&#xa;textAlign&#xa;" style="text;strokeColor=none;fillColor=none;align=left;verticalAlign=top;spacingLeft=4;spacingRight=4;overflow=hidden;rotatable=0;points=[[0,0.5],[1,0.5]];portConstraint=eastwest;fontStyle=0" parent="RT_vrtGyYzo0KyHQsd38-8" vertex="1">
          <mxGeometry y="26" width="200" height="84" as="geometry" />
        </mxCell>
        <mxCell id="RT_vrtGyYzo0KyHQsd38-10" value="" style="line;strokeWidth=1;fillColor=none;align=left;verticalAlign=middle;spacingTop=-1;spacingLeft=3;spacingRight=3;rotatable=0;labelPosition=right;points=[];portConstraint=eastwest;" parent="RT_vrtGyYzo0KyHQsd38-8" vertex="1">
          <mxGeometry y="110" width="200" height="8" as="geometry" />
        </mxCell>
        <mxCell id="RT_vrtGyYzo0KyHQsd38-11" value="getFontSize()&#xa;getLineHeight()&#xa;getLetterSpacing()&#xa;getFontWeight()&#xa;getTextAlign&#xa;setFontSize()&#xa;setLineHeight()&#xa;setLetterSpacing()&#xa;setFontWeight()&#xa;setTextAlign&#xa;" style="text;strokeColor=none;fillColor=none;align=left;verticalAlign=top;spacingLeft=4;spacingRight=4;overflow=hidden;rotatable=0;points=[[0,0.5],[1,0.5]];portConstraint=eastwest;" parent="RT_vrtGyYzo0KyHQsd38-8" vertex="1">
          <mxGeometry y="118" width="200" height="152" as="geometry" />
        </mxCell>
        <mxCell id="RT_vrtGyYzo0KyHQsd38-13" value="BorderSettings" style="swimlane;fontStyle=1;align=center;verticalAlign=top;childLayout=stackLayout;horizontal=1;startSize=26;horizontalStack=0;resizeParent=1;resizeParentMax=0;resizeLast=0;collapsible=1;marginBottom=0;" parent="1" vertex="1">
          <mxGeometry x="1511" y="1200" width="200" height="150" as="geometry" />
        </mxCell>
        <mxCell id="RT_vrtGyYzo0KyHQsd38-14" value="border&#xa;borderRadius" style="text;strokeColor=none;fillColor=none;align=left;verticalAlign=top;spacingLeft=4;spacingRight=4;overflow=hidden;rotatable=0;points=[[0,0.5],[1,0.5]];portConstraint=eastwest;fontStyle=0" parent="RT_vrtGyYzo0KyHQsd38-13" vertex="1">
          <mxGeometry y="26" width="200" height="44" as="geometry" />
        </mxCell>
        <mxCell id="RT_vrtGyYzo0KyHQsd38-15" value="" style="line;strokeWidth=1;fillColor=none;align=left;verticalAlign=middle;spacingTop=-1;spacingLeft=3;spacingRight=3;rotatable=0;labelPosition=right;points=[];portConstraint=eastwest;" parent="RT_vrtGyYzo0KyHQsd38-13" vertex="1">
          <mxGeometry y="70" width="200" height="8" as="geometry" />
        </mxCell>
        <mxCell id="RT_vrtGyYzo0KyHQsd38-16" value="getBorder()&#xa;getBorderRadius()&#xa;setBorder()&#xa;setBorderRadius()&#xa;" style="text;strokeColor=none;fillColor=none;align=left;verticalAlign=top;spacingLeft=4;spacingRight=4;overflow=hidden;rotatable=0;points=[[0,0.5],[1,0.5]];portConstraint=eastwest;fontStyle=0" parent="RT_vrtGyYzo0KyHQsd38-13" vertex="1">
          <mxGeometry y="78" width="200" height="72" as="geometry" />
        </mxCell>
        <mxCell id="RT_vrtGyYzo0KyHQsd38-17" value="GLYPH SETTINGS CLASSES" style="text;html=1;align=center;verticalAlign=middle;whiteSpace=wrap;rounded=0;strokeWidth=3;fontSize=24;fillColor=default;strokeColor=default;" parent="1" vertex="1">
          <mxGeometry x="790" y="20" width="700" height="60" as="geometry" />
        </mxCell>
        <mxCell id="-qFf4FIXOs7EhInDFWWg-113" style="edgeStyle=orthogonalEdgeStyle;rounded=0;orthogonalLoop=1;jettySize=auto;html=1;entryX=0.5;entryY=0;entryDx=0;entryDy=0;startArrow=block;startFill=0;endArrow=none;endFill=0;strokeColor=#000000;" parent="1" source="RT_vrtGyYzo0KyHQsd38-18" target="-qFf4FIXOs7EhInDFWWg-105" edge="1">
          <mxGeometry relative="1" as="geometry">
            <Array as="points">
              <mxPoint x="560" y="750" />
              <mxPoint x="280" y="750" />
            </Array>
          </mxGeometry>
        </mxCell>
        <mxCell id="-qFf4FIXOs7EhInDFWWg-114" style="edgeStyle=orthogonalEdgeStyle;rounded=0;orthogonalLoop=1;jettySize=auto;html=1;entryX=0.5;entryY=0;entryDx=0;entryDy=0;startArrow=block;startFill=0;endArrow=none;endFill=0;strokeColor=#000000;" parent="1" source="RT_vrtGyYzo0KyHQsd38-18" target="-qFf4FIXOs7EhInDFWWg-109" edge="1">
          <mxGeometry relative="1" as="geometry">
            <Array as="points">
              <mxPoint x="560" y="780" />
            </Array>
          </mxGeometry>
        </mxCell>
        <mxCell id="-qFf4FIXOs7EhInDFWWg-126" style="edgeStyle=orthogonalEdgeStyle;rounded=0;orthogonalLoop=1;jettySize=auto;html=1;entryX=0.5;entryY=0;entryDx=0;entryDy=0;startArrow=block;startFill=0;endArrow=none;endFill=0;strokeColor=#000000;" parent="1" source="RT_vrtGyYzo0KyHQsd38-18" target="-qFf4FIXOs7EhInDFWWg-121" edge="1">
          <mxGeometry relative="1" as="geometry">
            <Array as="points">
              <mxPoint x="560" y="750" />
              <mxPoint x="840" y="750" />
            </Array>
          </mxGeometry>
        </mxCell>
        <mxCell id="RT_vrtGyYzo0KyHQsd38-18" value="CombinedGlyphSettings" style="swimlane;fontStyle=1;align=center;verticalAlign=top;childLayout=stackLayout;horizontal=1;startSize=26;horizontalStack=0;resizeParent=1;resizeParentMax=0;resizeLast=0;collapsible=1;marginBottom=0;" parent="1" vertex="1">
          <mxGeometry x="440" y="540" width="240" height="170" as="geometry" />
        </mxCell>
        <mxCell id="RT_vrtGyYzo0KyHQsd38-19" value="colorSettings: ColorSettings&#xa;indentSettings: IndentSettings&#xa;fontSettings: FontSettings&#xa;sizeSettings: SizeSettings&#xa;backgroundSettings: BackgroundSettings&#xa;borderSettings: BorderSettings" style="text;strokeColor=none;fillColor=none;align=left;verticalAlign=top;spacingLeft=4;spacingRight=4;overflow=hidden;rotatable=0;points=[[0,0.5],[1,0.5]];portConstraint=eastwest;fontStyle=0" parent="RT_vrtGyYzo0KyHQsd38-18" vertex="1">
          <mxGeometry y="26" width="240" height="104" as="geometry" />
        </mxCell>
        <mxCell id="RT_vrtGyYzo0KyHQsd38-20" value="" style="line;strokeWidth=1;fillColor=none;align=left;verticalAlign=middle;spacingTop=-1;spacingLeft=3;spacingRight=3;rotatable=0;labelPosition=right;points=[];portConstraint=eastwest;" parent="RT_vrtGyYzo0KyHQsd38-18" vertex="1">
          <mxGeometry y="130" width="240" height="8" as="geometry" />
        </mxCell>
        <mxCell id="RT_vrtGyYzo0KyHQsd38-21" value="..." style="text;strokeColor=none;fillColor=none;align=left;verticalAlign=top;spacingLeft=4;spacingRight=4;overflow=hidden;rotatable=0;points=[[0,0.5],[1,0.5]];portConstraint=eastwest;fontStyle=0" parent="RT_vrtGyYzo0KyHQsd38-18" vertex="1">
          <mxGeometry y="138" width="240" height="32" as="geometry" />
        </mxCell>
        <mxCell id="IYxpVepuhbEYIuZDDsvg-1" value="SizeSettings" style="swimlane;fontStyle=1;align=center;verticalAlign=top;childLayout=stackLayout;horizontal=1;startSize=26;horizontalStack=0;resizeParent=1;resizeParentMax=0;resizeLast=0;collapsible=1;marginBottom=0;" parent="1" vertex="1">
          <mxGeometry x="1511" y="770" width="200" height="200" as="geometry" />
        </mxCell>
        <mxCell id="IYxpVepuhbEYIuZDDsvg-2" value="height?&#xa;minHeight?&#xa;maxHeight?&#xa;width&#xa;maxWidth()&#xa;minWidth()" style="text;strokeColor=none;fillColor=none;align=left;verticalAlign=top;spacingLeft=4;spacingRight=4;overflow=hidden;rotatable=0;points=[[0,0.5],[1,0.5]];portConstraint=eastwest;fontStyle=0" parent="IYxpVepuhbEYIuZDDsvg-1" vertex="1">
          <mxGeometry y="26" width="200" height="94" as="geometry" />
        </mxCell>
        <mxCell id="IYxpVepuhbEYIuZDDsvg-3" value="" style="line;strokeWidth=1;fillColor=none;align=left;verticalAlign=middle;spacingTop=-1;spacingLeft=3;spacingRight=3;rotatable=0;labelPosition=right;points=[];portConstraint=eastwest;" parent="IYxpVepuhbEYIuZDDsvg-1" vertex="1">
          <mxGeometry y="120" width="200" height="8" as="geometry" />
        </mxCell>
        <mxCell id="IYxpVepuhbEYIuZDDsvg-4" value="getHeight()?&#xa;getMinHeight()?&#xa;getMaxHeight()?&#xa;getWidth()&#xa;" style="text;strokeColor=none;fillColor=none;align=left;verticalAlign=top;spacingLeft=4;spacingRight=4;overflow=hidden;rotatable=0;points=[[0,0.5],[1,0.5]];portConstraint=eastwest;" parent="IYxpVepuhbEYIuZDDsvg-1" vertex="1">
          <mxGeometry y="128" width="200" height="72" as="geometry" />
        </mxCell>
        <mxCell id="IYxpVepuhbEYIuZDDsvg-7" value="BackgroundSettings" style="swimlane;fontStyle=1;align=center;verticalAlign=top;childLayout=stackLayout;horizontal=1;startSize=26;horizontalStack=0;resizeParent=1;resizeParentMax=0;resizeLast=0;collapsible=1;marginBottom=0;" parent="1" vertex="1">
          <mxGeometry x="1511" y="1010" width="200" height="150" as="geometry" />
        </mxCell>
        <mxCell id="IYxpVepuhbEYIuZDDsvg-8" value="background&#xa;backgroundColor" style="text;strokeColor=none;fillColor=none;align=left;verticalAlign=top;spacingLeft=4;spacingRight=4;overflow=hidden;rotatable=0;points=[[0,0.5],[1,0.5]];portConstraint=eastwest;fontStyle=0" parent="IYxpVepuhbEYIuZDDsvg-7" vertex="1">
          <mxGeometry y="26" width="200" height="44" as="geometry" />
        </mxCell>
        <mxCell id="IYxpVepuhbEYIuZDDsvg-9" value="" style="line;strokeWidth=1;fillColor=none;align=left;verticalAlign=middle;spacingTop=-1;spacingLeft=3;spacingRight=3;rotatable=0;labelPosition=right;points=[];portConstraint=eastwest;" parent="IYxpVepuhbEYIuZDDsvg-7" vertex="1">
          <mxGeometry y="70" width="200" height="8" as="geometry" />
        </mxCell>
        <mxCell id="IYxpVepuhbEYIuZDDsvg-10" value="getBackground()&#xa;getBackgroundColor()&#xa;setBackround()&#xa;setBackgroundColor()" style="text;strokeColor=none;fillColor=none;align=left;verticalAlign=top;spacingLeft=4;spacingRight=4;overflow=hidden;rotatable=0;points=[[0,0.5],[1,0.5]];portConstraint=eastwest;fontStyle=0" parent="IYxpVepuhbEYIuZDDsvg-7" vertex="1">
          <mxGeometry y="78" width="200" height="72" as="geometry" />
        </mxCell>
        <mxCell id="-qFf4FIXOs7EhInDFWWg-87" style="edgeStyle=orthogonalEdgeStyle;rounded=0;orthogonalLoop=1;jettySize=auto;html=1;entryX=0.5;entryY=0;entryDx=0;entryDy=0;startArrow=block;startFill=0;endArrow=none;endFill=0;strokeColor=#000000;" parent="1" source="IYxpVepuhbEYIuZDDsvg-13" target="-qFf4FIXOs7EhInDFWWg-76" edge="1">
          <mxGeometry relative="1" as="geometry">
            <Array as="points">
              <mxPoint x="560" y="310" />
              <mxPoint x="120" y="310" />
            </Array>
          </mxGeometry>
        </mxCell>
        <mxCell id="-qFf4FIXOs7EhInDFWWg-94" style="edgeStyle=orthogonalEdgeStyle;rounded=0;orthogonalLoop=1;jettySize=auto;html=1;entryX=0.5;entryY=0;entryDx=0;entryDy=0;startArrow=block;startFill=0;endArrow=none;endFill=0;strokeColor=#000000;" parent="1" source="IYxpVepuhbEYIuZDDsvg-13" target="-qFf4FIXOs7EhInDFWWg-89" edge="1">
          <mxGeometry relative="1" as="geometry">
            <Array as="points">
              <mxPoint x="560" y="300" />
              <mxPoint x="560" y="300" />
            </Array>
          </mxGeometry>
        </mxCell>
        <mxCell id="-qFf4FIXOs7EhInDFWWg-99" style="edgeStyle=orthogonalEdgeStyle;rounded=0;orthogonalLoop=1;jettySize=auto;html=1;entryX=0.5;entryY=0;entryDx=0;entryDy=0;startArrow=block;startFill=0;endArrow=none;endFill=0;strokeColor=#000000;" parent="1" source="IYxpVepuhbEYIuZDDsvg-13" target="-qFf4FIXOs7EhInDFWWg-95" edge="1">
          <mxGeometry relative="1" as="geometry">
            <Array as="points">
              <mxPoint x="560" y="310" />
              <mxPoint x="780" y="310" />
            </Array>
          </mxGeometry>
        </mxCell>
        <mxCell id="-qFf4FIXOs7EhInDFWWg-104" style="edgeStyle=orthogonalEdgeStyle;rounded=0;orthogonalLoop=1;jettySize=auto;html=1;entryX=0.5;entryY=0;entryDx=0;entryDy=0;startArrow=block;startFill=0;endArrow=none;endFill=0;strokeColor=#000000;" parent="1" source="IYxpVepuhbEYIuZDDsvg-13" target="-qFf4FIXOs7EhInDFWWg-100" edge="1">
          <mxGeometry relative="1" as="geometry">
            <Array as="points">
              <mxPoint x="560" y="310" />
              <mxPoint x="1000" y="310" />
            </Array>
          </mxGeometry>
        </mxCell>
        <mxCell id="IYxpVepuhbEYIuZDDsvg-13" value="TextGlyphSettings" style="swimlane;fontStyle=1;align=center;verticalAlign=top;childLayout=stackLayout;horizontal=1;startSize=26;horizontalStack=0;resizeParent=1;resizeParentMax=0;resizeLast=0;collapsible=1;marginBottom=0;" parent="1" vertex="1">
          <mxGeometry x="440" y="120" width="240" height="150" as="geometry" />
        </mxCell>
        <mxCell id="IYxpVepuhbEYIuZDDsvg-14" value="colorSettings: ColorSettings&#xa;indentSettings: IndentSettings&#xa;fontSettings: FontSettings&#xa;sizeSettings: SizeSettings&#xa;..." style="text;strokeColor=none;fillColor=none;align=left;verticalAlign=top;spacingLeft=4;spacingRight=4;overflow=hidden;rotatable=0;points=[[0,0.5],[1,0.5]];portConstraint=eastwest;fontStyle=0" parent="IYxpVepuhbEYIuZDDsvg-13" vertex="1">
          <mxGeometry y="26" width="240" height="84" as="geometry" />
        </mxCell>
        <mxCell id="IYxpVepuhbEYIuZDDsvg-15" value="" style="line;strokeWidth=1;fillColor=none;align=left;verticalAlign=middle;spacingTop=-1;spacingLeft=3;spacingRight=3;rotatable=0;labelPosition=right;points=[];portConstraint=eastwest;" parent="IYxpVepuhbEYIuZDDsvg-13" vertex="1">
          <mxGeometry y="110" width="240" height="8" as="geometry" />
        </mxCell>
        <mxCell id="IYxpVepuhbEYIuZDDsvg-16" value="..." style="text;strokeColor=none;fillColor=none;align=left;verticalAlign=top;spacingLeft=4;spacingRight=4;overflow=hidden;rotatable=0;points=[[0,0.5],[1,0.5]];portConstraint=eastwest;fontStyle=0" parent="IYxpVepuhbEYIuZDDsvg-13" vertex="1">
          <mxGeometry y="118" width="240" height="32" as="geometry" />
        </mxCell>
        <mxCell id="-qFf4FIXOs7EhInDFWWg-1" value="ProjectSettings" style="swimlane;fontStyle=1;align=center;verticalAlign=top;childLayout=stackLayout;horizontal=1;startSize=26;horizontalStack=0;resizeParent=1;resizeParentMax=0;resizeLast=0;collapsible=1;marginBottom=0;" parent="1" vertex="1">
          <mxGeometry x="1790" y="120" width="240" height="170" as="geometry" />
        </mxCell>
        <mxCell id="-qFf4FIXOs7EhInDFWWg-2" value="colorSettings: ColorSettings&#xa;indentSettings: IndentSettings&#xa;fontSettings: FontSettings&#xa;backgroundSettings: BackgroundSettings&#xa;sizeSettings: SizeSettings&#xa;borderSettings: BorderSettings" style="text;strokeColor=none;fillColor=none;align=left;verticalAlign=top;spacingLeft=4;spacingRight=4;overflow=hidden;rotatable=0;points=[[0,0.5],[1,0.5]];portConstraint=eastwest;fontStyle=0" parent="-qFf4FIXOs7EhInDFWWg-1" vertex="1">
          <mxGeometry y="26" width="240" height="104" as="geometry" />
        </mxCell>
        <mxCell id="-qFf4FIXOs7EhInDFWWg-3" value="" style="line;strokeWidth=1;fillColor=none;align=left;verticalAlign=middle;spacingTop=-1;spacingLeft=3;spacingRight=3;rotatable=0;labelPosition=right;points=[];portConstraint=eastwest;" parent="-qFf4FIXOs7EhInDFWWg-1" vertex="1">
          <mxGeometry y="130" width="240" height="8" as="geometry" />
        </mxCell>
        <mxCell id="-qFf4FIXOs7EhInDFWWg-4" value="..." style="text;strokeColor=none;fillColor=none;align=left;verticalAlign=top;spacingLeft=4;spacingRight=4;overflow=hidden;rotatable=0;points=[[0,0.5],[1,0.5]];portConstraint=eastwest;" parent="-qFf4FIXOs7EhInDFWWg-1" vertex="1">
          <mxGeometry y="138" width="240" height="32" as="geometry" />
        </mxCell>
        <mxCell id="-qFf4FIXOs7EhInDFWWg-5" value="ColorSettings" style="swimlane;fontStyle=1;align=center;verticalAlign=top;childLayout=stackLayout;horizontal=1;startSize=26;horizontalStack=0;resizeParent=1;resizeParentMax=0;resizeLast=0;collapsible=1;marginBottom=0;" parent="1" vertex="1">
          <mxGeometry x="1511" y="120" width="200" height="110" as="geometry" />
        </mxCell>
        <mxCell id="-qFf4FIXOs7EhInDFWWg-6" value="color&#xa;" style="text;strokeColor=none;fillColor=none;align=left;verticalAlign=top;spacingLeft=4;spacingRight=4;overflow=hidden;rotatable=0;points=[[0,0.5],[1,0.5]];portConstraint=eastwest;fontStyle=0" parent="-qFf4FIXOs7EhInDFWWg-5" vertex="1">
          <mxGeometry y="26" width="200" height="34" as="geometry" />
        </mxCell>
        <mxCell id="-qFf4FIXOs7EhInDFWWg-7" value="" style="line;strokeWidth=1;fillColor=none;align=left;verticalAlign=middle;spacingTop=-1;spacingLeft=3;spacingRight=3;rotatable=0;labelPosition=right;points=[];portConstraint=eastwest;" parent="-qFf4FIXOs7EhInDFWWg-5" vertex="1">
          <mxGeometry y="60" width="200" height="8" as="geometry" />
        </mxCell>
        <mxCell id="-qFf4FIXOs7EhInDFWWg-8" value="getColor()&#xa;setColor()" style="text;strokeColor=none;fillColor=none;align=left;verticalAlign=top;spacingLeft=4;spacingRight=4;overflow=hidden;rotatable=0;points=[[0,0.5],[1,0.5]];portConstraint=eastwest;" parent="-qFf4FIXOs7EhInDFWWg-5" vertex="1">
          <mxGeometry y="68" width="200" height="42" as="geometry" />
        </mxCell>
        <mxCell id="-qFf4FIXOs7EhInDFWWg-17" style="edgeStyle=orthogonalEdgeStyle;rounded=0;orthogonalLoop=1;jettySize=auto;html=1;exitX=0.5;exitY=0;exitDx=0;exitDy=0;entryX=0.5;entryY=1.038;entryDx=0;entryDy=0;entryPerimeter=0;endArrow=block;endFill=0;" parent="1" source="-qFf4FIXOs7EhInDFWWg-13" target="-qFf4FIXOs7EhInDFWWg-4" edge="1">
          <mxGeometry relative="1" as="geometry" />
        </mxCell>
        <mxCell id="-qFf4FIXOs7EhInDFWWg-13" value="CustomSettings" style="swimlane;fontStyle=1;align=center;verticalAlign=top;childLayout=stackLayout;horizontal=1;startSize=26;horizontalStack=0;resizeParent=1;resizeParentMax=0;resizeLast=0;collapsible=1;marginBottom=0;" parent="1" vertex="1">
          <mxGeometry x="1790" y="330" width="240" height="170" as="geometry" />
        </mxCell>
        <mxCell id="-qFf4FIXOs7EhInDFWWg-14" value="colorSettings: ColorSettings&#xa;indentSettings: IndentSettings&#xa;fontSettings: FontSettings&#xa;backgroundSettings: BackgroundSettings&#xa;sizeSettings: SizeSettings&#xa;borderSettings: BorderSettings" style="text;strokeColor=none;fillColor=none;align=left;verticalAlign=top;spacingLeft=4;spacingRight=4;overflow=hidden;rotatable=0;points=[[0,0.5],[1,0.5]];portConstraint=eastwest;fontStyle=0" parent="-qFf4FIXOs7EhInDFWWg-13" vertex="1">
          <mxGeometry y="26" width="240" height="104" as="geometry" />
        </mxCell>
        <mxCell id="-qFf4FIXOs7EhInDFWWg-15" value="" style="line;strokeWidth=1;fillColor=none;align=left;verticalAlign=middle;spacingTop=-1;spacingLeft=3;spacingRight=3;rotatable=0;labelPosition=right;points=[];portConstraint=eastwest;" parent="-qFf4FIXOs7EhInDFWWg-13" vertex="1">
          <mxGeometry y="130" width="240" height="8" as="geometry" />
        </mxCell>
        <mxCell id="-qFf4FIXOs7EhInDFWWg-16" value="..." style="text;strokeColor=none;fillColor=none;align=left;verticalAlign=top;spacingLeft=4;spacingRight=4;overflow=hidden;rotatable=0;points=[[0,0.5],[1,0.5]];portConstraint=eastwest;" parent="-qFf4FIXOs7EhInDFWWg-13" vertex="1">
          <mxGeometry y="138" width="240" height="32" as="geometry" />
        </mxCell>
        <mxCell id="-qFf4FIXOs7EhInDFWWg-18" style="edgeStyle=orthogonalEdgeStyle;rounded=0;orthogonalLoop=1;jettySize=auto;html=1;exitX=1;exitY=0.5;exitDx=0;exitDy=0;entryX=0;entryY=0.5;entryDx=0;entryDy=0;endArrow=diamondThin;endFill=1;" parent="1" source="-qFf4FIXOs7EhInDFWWg-6" target="-qFf4FIXOs7EhInDFWWg-2" edge="1">
          <mxGeometry relative="1" as="geometry" />
        </mxCell>
        <mxCell id="-qFf4FIXOs7EhInDFWWg-19" style="edgeStyle=orthogonalEdgeStyle;rounded=0;orthogonalLoop=1;jettySize=auto;html=1;exitX=1;exitY=0.5;exitDx=0;exitDy=0;entryX=0;entryY=0.5;entryDx=0;entryDy=0;endArrow=diamondThin;endFill=1;" parent="1" source="RT_vrtGyYzo0KyHQsd38-4" target="-qFf4FIXOs7EhInDFWWg-2" edge="1">
          <mxGeometry relative="1" as="geometry" />
        </mxCell>
        <mxCell id="-qFf4FIXOs7EhInDFWWg-20" style="edgeStyle=orthogonalEdgeStyle;rounded=0;orthogonalLoop=1;jettySize=auto;html=1;exitX=1;exitY=0.5;exitDx=0;exitDy=0;entryX=0;entryY=0.5;entryDx=0;entryDy=0;endArrow=diamondThin;endFill=1;" parent="1" source="RT_vrtGyYzo0KyHQsd38-9" target="-qFf4FIXOs7EhInDFWWg-2" edge="1">
          <mxGeometry relative="1" as="geometry" />
        </mxCell>
        <mxCell id="-qFf4FIXOs7EhInDFWWg-21" style="edgeStyle=orthogonalEdgeStyle;rounded=0;orthogonalLoop=1;jettySize=auto;html=1;exitX=1;exitY=0.5;exitDx=0;exitDy=0;entryX=0;entryY=0.5;entryDx=0;entryDy=0;endArrow=diamondThin;endFill=1;" parent="1" source="IYxpVepuhbEYIuZDDsvg-8" target="-qFf4FIXOs7EhInDFWWg-2" edge="1">
          <mxGeometry relative="1" as="geometry" />
        </mxCell>
        <mxCell id="-qFf4FIXOs7EhInDFWWg-22" style="edgeStyle=orthogonalEdgeStyle;rounded=0;orthogonalLoop=1;jettySize=auto;html=1;exitX=1;exitY=0.5;exitDx=0;exitDy=0;endArrow=diamondThin;endFill=1;entryX=0;entryY=0.5;entryDx=0;entryDy=0;" parent="1" source="IYxpVepuhbEYIuZDDsvg-2" target="-qFf4FIXOs7EhInDFWWg-2" edge="1">
          <mxGeometry relative="1" as="geometry">
            <mxPoint x="1851" y="580" as="targetPoint" />
          </mxGeometry>
        </mxCell>
        <mxCell id="-qFf4FIXOs7EhInDFWWg-23" style="edgeStyle=orthogonalEdgeStyle;rounded=0;orthogonalLoop=1;jettySize=auto;html=1;exitX=1;exitY=0.5;exitDx=0;exitDy=0;endArrow=diamondThin;endFill=1;entryX=0;entryY=0.5;entryDx=0;entryDy=0;" parent="1" source="RT_vrtGyYzo0KyHQsd38-14" target="-qFf4FIXOs7EhInDFWWg-2" edge="1">
          <mxGeometry relative="1" as="geometry">
            <mxPoint x="1851" y="600" as="targetPoint" />
          </mxGeometry>
        </mxCell>
        <mxCell id="-qFf4FIXOs7EhInDFWWg-28" style="edgeStyle=orthogonalEdgeStyle;rounded=0;orthogonalLoop=1;jettySize=auto;html=1;exitX=0;exitY=0.5;exitDx=0;exitDy=0;entryX=1;entryY=0.5;entryDx=0;entryDy=0;endArrow=none;endFill=0;strokeColor=#0000FF;" parent="1" source="-qFf4FIXOs7EhInDFWWg-6" target="IYxpVepuhbEYIuZDDsvg-14" edge="1">
          <mxGeometry relative="1" as="geometry">
            <Array as="points">
              <mxPoint x="1480" y="163" />
              <mxPoint x="1480" y="188" />
            </Array>
          </mxGeometry>
        </mxCell>
        <mxCell id="-qFf4FIXOs7EhInDFWWg-35" style="edgeStyle=orthogonalEdgeStyle;rounded=0;orthogonalLoop=1;jettySize=auto;html=1;exitX=0;exitY=0.5;exitDx=0;exitDy=0;startArrow=none;startFill=0;endArrow=none;endFill=0;entryX=1;entryY=0.5;entryDx=0;entryDy=0;strokeColor=#0000FF;" parent="1" source="RT_vrtGyYzo0KyHQsd38-4" target="IYxpVepuhbEYIuZDDsvg-14" edge="1">
          <mxGeometry relative="1" as="geometry">
            <mxPoint x="920" y="210" as="targetPoint" />
            <Array as="points">
              <mxPoint x="1480" y="318" />
              <mxPoint x="1480" y="188" />
            </Array>
          </mxGeometry>
        </mxCell>
        <mxCell id="-qFf4FIXOs7EhInDFWWg-37" style="edgeStyle=orthogonalEdgeStyle;rounded=0;orthogonalLoop=1;jettySize=auto;html=1;startArrow=none;startFill=0;endArrow=diamondThin;endFill=1;entryX=1;entryY=0.5;entryDx=0;entryDy=0;exitX=0;exitY=0.5;exitDx=0;exitDy=0;strokeColor=#0000FF;" parent="1" source="IYxpVepuhbEYIuZDDsvg-2" target="IYxpVepuhbEYIuZDDsvg-14" edge="1">
          <mxGeometry relative="1" as="geometry">
            <mxPoint x="980" y="439.9999999999998" as="targetPoint" />
            <Array as="points">
              <mxPoint x="1480" y="843" />
              <mxPoint x="1480" y="188" />
            </Array>
          </mxGeometry>
        </mxCell>
        <mxCell id="-qFf4FIXOs7EhInDFWWg-59" value="&lt;table border=&quot;1&quot; width=&quot;100%&quot; cellpadding=&quot;4&quot; style=&quot;width: 100% ; height: 100% ; border-collapse: collapse ; border: 1px solid rgb(26 , 26 , 26)&quot;&gt;&lt;tbody&gt;&lt;tr style=&quot;background-color: rgb(167 , 201 , 66) ; color: rgb(255 , 255 , 255)&quot;&gt;&lt;th align=&quot;left&quot; style=&quot;background-color: rgb(102 , 0 , 204)&quot;&gt;ComponentTypes&lt;/th&gt;&lt;/tr&gt;&lt;tr&gt;&lt;td&gt;Title&lt;/td&gt;&lt;/tr&gt;&lt;tr style=&quot;background-color: rgb(234 , 242 , 211)&quot;&gt;&lt;td style=&quot;background-color: rgb(229 , 204 , 255)&quot;&gt;Heading&lt;/td&gt;&lt;/tr&gt;&lt;tr&gt;&lt;td&gt;Subheading(h3,h4,h5,h6)&lt;/td&gt;&lt;/tr&gt;&lt;tr style=&quot;background-color: rgb(234 , 242 , 211)&quot;&gt;&lt;td style=&quot;background-color: rgb(229 , 204 , 255)&quot;&gt;Lead&lt;/td&gt;&lt;/tr&gt;&lt;tr&gt;&lt;td style=&quot;border-collapse: collapse&quot;&gt;Paragraph&lt;br&gt;&lt;/td&gt;&lt;/tr&gt;&lt;tr&gt;&lt;td style=&quot;background-color: rgb(229 , 204 , 255) ; border-collapse: collapse&quot;&gt;&lt;span&gt;&lt;/span&gt;&lt;span&gt;&lt;/span&gt;&lt;span&gt;Description&lt;/span&gt;&lt;br&gt;&lt;/td&gt;&lt;/tr&gt;&lt;tr&gt;&lt;td&gt;&lt;span&gt;&lt;/span&gt;&lt;span&gt;&lt;/span&gt;&lt;span&gt;Quote&lt;/span&gt;&lt;br&gt;&lt;/td&gt;&lt;/tr&gt;&lt;tr&gt;&lt;td style=&quot;background-color: rgb(229 , 204 , 255)&quot;&gt;List&lt;br&gt;&lt;/td&gt;&lt;/tr&gt;&lt;tr&gt;&lt;td&gt;Divider&lt;br&gt;&lt;/td&gt;&lt;/tr&gt;&lt;tr&gt;&lt;td style=&quot;background-color: rgb(229 , 204 , 255)&quot;&gt;Image&lt;br&gt;&lt;/td&gt;&lt;/tr&gt;&lt;tr&gt;&lt;td&gt;Embed&lt;br&gt;&lt;/td&gt;&lt;/tr&gt;&lt;tr&gt;&lt;td style=&quot;background-color: rgb(229 , 204 , 255)&quot;&gt;Button&lt;br&gt;&lt;/td&gt;&lt;/tr&gt;&lt;tr&gt;&lt;td&gt;Input form&lt;br&gt;&lt;/td&gt;&lt;/tr&gt;&lt;/tbody&gt;&lt;/table&gt;" style="text;html=1;overflow=fill;rounded=0;fillColor=default;gradientColor=none;" parent="1" vertex="1">
          <mxGeometry x="2070" y="120" width="240" height="480" as="geometry" />
        </mxCell>
        <mxCell id="-qFf4FIXOs7EhInDFWWg-72" value="HeadingSettings" style="swimlane;fontStyle=1;align=center;verticalAlign=top;childLayout=stackLayout;horizontal=1;startSize=26;horizontalStack=0;resizeParent=1;resizeParentMax=0;resizeLast=0;collapsible=1;marginBottom=0;" parent="1" vertex="1">
          <mxGeometry x="250" y="350" width="180" height="150" as="geometry" />
        </mxCell>
        <mxCell id="-qFf4FIXOs7EhInDFWWg-73" value="colorSettings: ColorSettings&#xa;indentSettings: IndentSettings&#xa;fontSettings: FontSettings&#xa;sizeSettings: SizeSettings&#xa;..." style="text;strokeColor=none;fillColor=none;align=left;verticalAlign=top;spacingLeft=4;spacingRight=4;overflow=hidden;rotatable=0;points=[[0,0.5],[1,0.5]];portConstraint=eastwest;fontStyle=0" parent="-qFf4FIXOs7EhInDFWWg-72" vertex="1">
          <mxGeometry y="26" width="180" height="84" as="geometry" />
        </mxCell>
        <mxCell id="-qFf4FIXOs7EhInDFWWg-74" value="" style="line;strokeWidth=1;fillColor=none;align=left;verticalAlign=middle;spacingTop=-1;spacingLeft=3;spacingRight=3;rotatable=0;labelPosition=right;points=[];portConstraint=eastwest;" parent="-qFf4FIXOs7EhInDFWWg-72" vertex="1">
          <mxGeometry y="110" width="180" height="8" as="geometry" />
        </mxCell>
        <mxCell id="-qFf4FIXOs7EhInDFWWg-75" value="..." style="text;strokeColor=none;fillColor=none;align=left;verticalAlign=top;spacingLeft=4;spacingRight=4;overflow=hidden;rotatable=0;points=[[0,0.5],[1,0.5]];portConstraint=eastwest;fontStyle=0" parent="-qFf4FIXOs7EhInDFWWg-72" vertex="1">
          <mxGeometry y="118" width="180" height="32" as="geometry" />
        </mxCell>
        <mxCell id="-qFf4FIXOs7EhInDFWWg-76" value="TitleSettings" style="swimlane;fontStyle=1;align=center;verticalAlign=top;childLayout=stackLayout;horizontal=1;startSize=26;horizontalStack=0;resizeParent=1;resizeParentMax=0;resizeLast=0;collapsible=1;marginBottom=0;" parent="1" vertex="1">
          <mxGeometry x="30" y="350" width="180" height="150" as="geometry" />
        </mxCell>
        <mxCell id="-qFf4FIXOs7EhInDFWWg-77" value="colorSettings: ColorSettings&#xa;indentSettings: IndentSettings&#xa;fontSettings: FontSettings&#xa;sizeSettings: SizeSettings&#xa;..." style="text;strokeColor=none;fillColor=none;align=left;verticalAlign=top;spacingLeft=4;spacingRight=4;overflow=hidden;rotatable=0;points=[[0,0.5],[1,0.5]];portConstraint=eastwest;fontStyle=0" parent="-qFf4FIXOs7EhInDFWWg-76" vertex="1">
          <mxGeometry y="26" width="180" height="84" as="geometry" />
        </mxCell>
        <mxCell id="-qFf4FIXOs7EhInDFWWg-78" value="" style="line;strokeWidth=1;fillColor=none;align=left;verticalAlign=middle;spacingTop=-1;spacingLeft=3;spacingRight=3;rotatable=0;labelPosition=right;points=[];portConstraint=eastwest;" parent="-qFf4FIXOs7EhInDFWWg-76" vertex="1">
          <mxGeometry y="110" width="180" height="8" as="geometry" />
        </mxCell>
        <mxCell id="-qFf4FIXOs7EhInDFWWg-79" value="..." style="text;strokeColor=none;fillColor=none;align=left;verticalAlign=top;spacingLeft=4;spacingRight=4;overflow=hidden;rotatable=0;points=[[0,0.5],[1,0.5]];portConstraint=eastwest;fontStyle=0" parent="-qFf4FIXOs7EhInDFWWg-76" vertex="1">
          <mxGeometry y="118" width="180" height="32" as="geometry" />
        </mxCell>
        <mxCell id="-qFf4FIXOs7EhInDFWWg-85" style="edgeStyle=orthogonalEdgeStyle;rounded=0;orthogonalLoop=1;jettySize=auto;html=1;entryX=0.5;entryY=0;entryDx=0;entryDy=0;startArrow=block;startFill=0;endArrow=none;endFill=0;strokeColor=#000000;" parent="1" source="IYxpVepuhbEYIuZDDsvg-13" target="-qFf4FIXOs7EhInDFWWg-72" edge="1">
          <mxGeometry relative="1" as="geometry">
            <Array as="points">
              <mxPoint x="560" y="310" />
              <mxPoint x="340" y="310" />
            </Array>
          </mxGeometry>
        </mxCell>
        <mxCell id="-qFf4FIXOs7EhInDFWWg-89" value="SubheadingSettings" style="swimlane;fontStyle=1;align=center;verticalAlign=top;childLayout=stackLayout;horizontal=1;startSize=26;horizontalStack=0;resizeParent=1;resizeParentMax=0;resizeLast=0;collapsible=1;marginBottom=0;" parent="1" vertex="1">
          <mxGeometry x="470" y="350" width="180" height="150" as="geometry" />
        </mxCell>
        <mxCell id="-qFf4FIXOs7EhInDFWWg-90" value="colorSettings: ColorSettings&#xa;indentSettings: IndentSettings&#xa;fontSettings: FontSettings&#xa;sizeSettings: SizeSettings&#xa;..." style="text;strokeColor=none;fillColor=none;align=left;verticalAlign=top;spacingLeft=4;spacingRight=4;overflow=hidden;rotatable=0;points=[[0,0.5],[1,0.5]];portConstraint=eastwest;fontStyle=0" parent="-qFf4FIXOs7EhInDFWWg-89" vertex="1">
          <mxGeometry y="26" width="180" height="84" as="geometry" />
        </mxCell>
        <mxCell id="-qFf4FIXOs7EhInDFWWg-91" value="" style="line;strokeWidth=1;fillColor=none;align=left;verticalAlign=middle;spacingTop=-1;spacingLeft=3;spacingRight=3;rotatable=0;labelPosition=right;points=[];portConstraint=eastwest;" parent="-qFf4FIXOs7EhInDFWWg-89" vertex="1">
          <mxGeometry y="110" width="180" height="8" as="geometry" />
        </mxCell>
        <mxCell id="-qFf4FIXOs7EhInDFWWg-92" value="..." style="text;strokeColor=none;fillColor=none;align=left;verticalAlign=top;spacingLeft=4;spacingRight=4;overflow=hidden;rotatable=0;points=[[0,0.5],[1,0.5]];portConstraint=eastwest;fontStyle=0" parent="-qFf4FIXOs7EhInDFWWg-89" vertex="1">
          <mxGeometry y="118" width="180" height="32" as="geometry" />
        </mxCell>
        <mxCell id="-qFf4FIXOs7EhInDFWWg-95" value="LeadSettings" style="swimlane;fontStyle=1;align=center;verticalAlign=top;childLayout=stackLayout;horizontal=1;startSize=26;horizontalStack=0;resizeParent=1;resizeParentMax=0;resizeLast=0;collapsible=1;marginBottom=0;" parent="1" vertex="1">
          <mxGeometry x="690" y="350" width="180" height="150" as="geometry" />
        </mxCell>
        <mxCell id="-qFf4FIXOs7EhInDFWWg-96" value="colorSettings: ColorSettings&#xa;indentSettings: IndentSettings&#xa;fontSettings: FontSettings&#xa;sizeSettings: SizeSettings&#xa;..." style="text;strokeColor=none;fillColor=none;align=left;verticalAlign=top;spacingLeft=4;spacingRight=4;overflow=hidden;rotatable=0;points=[[0,0.5],[1,0.5]];portConstraint=eastwest;fontStyle=0" parent="-qFf4FIXOs7EhInDFWWg-95" vertex="1">
          <mxGeometry y="26" width="180" height="84" as="geometry" />
        </mxCell>
        <mxCell id="-qFf4FIXOs7EhInDFWWg-97" value="" style="line;strokeWidth=1;fillColor=none;align=left;verticalAlign=middle;spacingTop=-1;spacingLeft=3;spacingRight=3;rotatable=0;labelPosition=right;points=[];portConstraint=eastwest;" parent="-qFf4FIXOs7EhInDFWWg-95" vertex="1">
          <mxGeometry y="110" width="180" height="8" as="geometry" />
        </mxCell>
        <mxCell id="-qFf4FIXOs7EhInDFWWg-98" value="..." style="text;strokeColor=none;fillColor=none;align=left;verticalAlign=top;spacingLeft=4;spacingRight=4;overflow=hidden;rotatable=0;points=[[0,0.5],[1,0.5]];portConstraint=eastwest;fontStyle=0" parent="-qFf4FIXOs7EhInDFWWg-95" vertex="1">
          <mxGeometry y="118" width="180" height="32" as="geometry" />
        </mxCell>
        <mxCell id="-qFf4FIXOs7EhInDFWWg-100" value="ParagraphSettings" style="swimlane;fontStyle=1;align=center;verticalAlign=top;childLayout=stackLayout;horizontal=1;startSize=26;horizontalStack=0;resizeParent=1;resizeParentMax=0;resizeLast=0;collapsible=1;marginBottom=0;" parent="1" vertex="1">
          <mxGeometry x="910" y="350" width="180" height="150" as="geometry" />
        </mxCell>
        <mxCell id="-qFf4FIXOs7EhInDFWWg-101" value="colorSettings: ColorSettings&#xa;indentSettings: IndentSettings&#xa;fontSettings: FontSettings&#xa;sizeSettings: SizeSettings&#xa;..." style="text;strokeColor=none;fillColor=none;align=left;verticalAlign=top;spacingLeft=4;spacingRight=4;overflow=hidden;rotatable=0;points=[[0,0.5],[1,0.5]];portConstraint=eastwest;fontStyle=0" parent="-qFf4FIXOs7EhInDFWWg-100" vertex="1">
          <mxGeometry y="26" width="180" height="84" as="geometry" />
        </mxCell>
        <mxCell id="-qFf4FIXOs7EhInDFWWg-102" value="" style="line;strokeWidth=1;fillColor=none;align=left;verticalAlign=middle;spacingTop=-1;spacingLeft=3;spacingRight=3;rotatable=0;labelPosition=right;points=[];portConstraint=eastwest;" parent="-qFf4FIXOs7EhInDFWWg-100" vertex="1">
          <mxGeometry y="110" width="180" height="8" as="geometry" />
        </mxCell>
        <mxCell id="-qFf4FIXOs7EhInDFWWg-103" value="..." style="text;strokeColor=none;fillColor=none;align=left;verticalAlign=top;spacingLeft=4;spacingRight=4;overflow=hidden;rotatable=0;points=[[0,0.5],[1,0.5]];portConstraint=eastwest;fontStyle=0" parent="-qFf4FIXOs7EhInDFWWg-100" vertex="1">
          <mxGeometry y="118" width="180" height="32" as="geometry" />
        </mxCell>
        <mxCell id="-qFf4FIXOs7EhInDFWWg-105" value="ButtonSettings" style="swimlane;fontStyle=1;align=center;verticalAlign=top;childLayout=stackLayout;horizontal=1;startSize=26;horizontalStack=0;resizeParent=1;resizeParentMax=0;resizeLast=0;collapsible=1;marginBottom=0;" parent="1" vertex="1">
          <mxGeometry x="160" y="790" width="240" height="170" as="geometry" />
        </mxCell>
        <mxCell id="-qFf4FIXOs7EhInDFWWg-106" value="colorSettings: ColorSettings&#xa;indentSettings: IndentSettings&#xa;fontSettings: FontSettings&#xa;sizeSettings: SizeSettings&#xa;backgroundSettings: BackgroundSettings&#xa;borderSettings: BorderSettings" style="text;strokeColor=none;fillColor=none;align=left;verticalAlign=top;spacingLeft=4;spacingRight=4;overflow=hidden;rotatable=0;points=[[0,0.5],[1,0.5]];portConstraint=eastwest;fontStyle=0" parent="-qFf4FIXOs7EhInDFWWg-105" vertex="1">
          <mxGeometry y="26" width="240" height="104" as="geometry" />
        </mxCell>
        <mxCell id="-qFf4FIXOs7EhInDFWWg-107" value="" style="line;strokeWidth=1;fillColor=none;align=left;verticalAlign=middle;spacingTop=-1;spacingLeft=3;spacingRight=3;rotatable=0;labelPosition=right;points=[];portConstraint=eastwest;" parent="-qFf4FIXOs7EhInDFWWg-105" vertex="1">
          <mxGeometry y="130" width="240" height="8" as="geometry" />
        </mxCell>
        <mxCell id="-qFf4FIXOs7EhInDFWWg-108" value="..." style="text;strokeColor=none;fillColor=none;align=left;verticalAlign=top;spacingLeft=4;spacingRight=4;overflow=hidden;rotatable=0;points=[[0,0.5],[1,0.5]];portConstraint=eastwest;fontStyle=0" parent="-qFf4FIXOs7EhInDFWWg-105" vertex="1">
          <mxGeometry y="138" width="240" height="32" as="geometry" />
        </mxCell>
        <mxCell id="-qFf4FIXOs7EhInDFWWg-109" value="QuoteSettings" style="swimlane;fontStyle=1;align=center;verticalAlign=top;childLayout=stackLayout;horizontal=1;startSize=26;horizontalStack=0;resizeParent=1;resizeParentMax=0;resizeLast=0;collapsible=1;marginBottom=0;" parent="1" vertex="1">
          <mxGeometry x="440" y="790" width="240" height="170" as="geometry" />
        </mxCell>
        <mxCell id="-qFf4FIXOs7EhInDFWWg-110" value="colorSettings: ColorSettings&#xa;indentSettings: IndentSettings&#xa;fontSettings: FontSettings&#xa;sizeSettings: SizeSettings&#xa;backgroundSettings: BackgroundSettings&#xa;borderSettings: BorderSettings" style="text;strokeColor=none;fillColor=none;align=left;verticalAlign=top;spacingLeft=4;spacingRight=4;overflow=hidden;rotatable=0;points=[[0,0.5],[1,0.5]];portConstraint=eastwest;fontStyle=0" parent="-qFf4FIXOs7EhInDFWWg-109" vertex="1">
          <mxGeometry y="26" width="240" height="104" as="geometry" />
        </mxCell>
        <mxCell id="-qFf4FIXOs7EhInDFWWg-111" value="" style="line;strokeWidth=1;fillColor=none;align=left;verticalAlign=middle;spacingTop=-1;spacingLeft=3;spacingRight=3;rotatable=0;labelPosition=right;points=[];portConstraint=eastwest;" parent="-qFf4FIXOs7EhInDFWWg-109" vertex="1">
          <mxGeometry y="130" width="240" height="8" as="geometry" />
        </mxCell>
        <mxCell id="-qFf4FIXOs7EhInDFWWg-112" value="..." style="text;strokeColor=none;fillColor=none;align=left;verticalAlign=top;spacingLeft=4;spacingRight=4;overflow=hidden;rotatable=0;points=[[0,0.5],[1,0.5]];portConstraint=eastwest;fontStyle=0" parent="-qFf4FIXOs7EhInDFWWg-109" vertex="1">
          <mxGeometry y="138" width="240" height="32" as="geometry" />
        </mxCell>
        <mxCell id="-qFf4FIXOs7EhInDFWWg-121" value="InputFormSettings" style="swimlane;fontStyle=1;align=center;verticalAlign=top;childLayout=stackLayout;horizontal=1;startSize=26;horizontalStack=0;resizeParent=1;resizeParentMax=0;resizeLast=0;collapsible=1;marginBottom=0;" parent="1" vertex="1">
          <mxGeometry x="720" y="790" width="240" height="170" as="geometry" />
        </mxCell>
        <mxCell id="-qFf4FIXOs7EhInDFWWg-122" value="colorSettings: ColorSettings&#xa;indentSettings: IndentSettings&#xa;fontSettings: FontSettings&#xa;sizeSettings: SizeSettings&#xa;backgroundSettings: BackgroundSettings&#xa;borderSettings: BorderSettings" style="text;strokeColor=none;fillColor=none;align=left;verticalAlign=top;spacingLeft=4;spacingRight=4;overflow=hidden;rotatable=0;points=[[0,0.5],[1,0.5]];portConstraint=eastwest;fontStyle=0" parent="-qFf4FIXOs7EhInDFWWg-121" vertex="1">
          <mxGeometry y="26" width="240" height="104" as="geometry" />
        </mxCell>
        <mxCell id="-qFf4FIXOs7EhInDFWWg-123" value="" style="line;strokeWidth=1;fillColor=none;align=left;verticalAlign=middle;spacingTop=-1;spacingLeft=3;spacingRight=3;rotatable=0;labelPosition=right;points=[];portConstraint=eastwest;" parent="-qFf4FIXOs7EhInDFWWg-121" vertex="1">
          <mxGeometry y="130" width="240" height="8" as="geometry" />
        </mxCell>
        <mxCell id="-qFf4FIXOs7EhInDFWWg-124" value="..." style="text;strokeColor=none;fillColor=none;align=left;verticalAlign=top;spacingLeft=4;spacingRight=4;overflow=hidden;rotatable=0;points=[[0,0.5],[1,0.5]];portConstraint=eastwest;fontStyle=0" parent="-qFf4FIXOs7EhInDFWWg-121" vertex="1">
          <mxGeometry y="138" width="240" height="32" as="geometry" />
        </mxCell>
        <mxCell id="z3bIk6jfsUBFybOqAAZT-3" value="Legend" style="swimlane;strokeColor=default;fillColor=#FFFFFF;rounded=1;" parent="1" vertex="1">
          <mxGeometry x="2080" y="1480" width="240" height="160" as="geometry" />
        </mxCell>
        <mxCell id="z3bIk6jfsUBFybOqAAZT-4" style="edgeStyle=orthogonalEdgeStyle;rounded=0;orthogonalLoop=1;jettySize=auto;html=1;endArrow=block;endFill=0;" parent="z3bIk6jfsUBFybOqAAZT-3" edge="1">
          <mxGeometry relative="1" as="geometry">
            <mxPoint x="20" y="60" as="targetPoint" />
            <mxPoint x="50" y="60" as="sourcePoint" />
          </mxGeometry>
        </mxCell>
        <mxCell id="z3bIk6jfsUBFybOqAAZT-6" value="inheritance" style="text;html=1;strokeColor=none;fillColor=none;align=left;verticalAlign=middle;whiteSpace=wrap;rounded=0;" parent="z3bIk6jfsUBFybOqAAZT-3" vertex="1">
          <mxGeometry x="60" y="50" width="90" height="20" as="geometry" />
        </mxCell>
        <mxCell id="z3bIk6jfsUBFybOqAAZT-7" style="edgeStyle=orthogonalEdgeStyle;rounded=0;orthogonalLoop=1;jettySize=auto;html=1;endArrow=diamondThin;endFill=1;" parent="z3bIk6jfsUBFybOqAAZT-3" edge="1">
          <mxGeometry relative="1" as="geometry">
            <mxPoint x="20" y="90" as="targetPoint" />
            <mxPoint x="50" y="90" as="sourcePoint" />
          </mxGeometry>
        </mxCell>
        <mxCell id="z3bIk6jfsUBFybOqAAZT-8" value="Composition" style="text;html=1;strokeColor=none;fillColor=none;align=left;verticalAlign=middle;whiteSpace=wrap;rounded=0;" parent="z3bIk6jfsUBFybOqAAZT-3" vertex="1">
          <mxGeometry x="60" y="80" width="90" height="20" as="geometry" />
        </mxCell>
        <mxCell id="z3bIk6jfsUBFybOqAAZT-26" value="Disputable" style="text;html=1;strokeColor=none;fillColor=none;align=left;verticalAlign=middle;whiteSpace=wrap;rounded=0;" parent="z3bIk6jfsUBFybOqAAZT-3" vertex="1">
          <mxGeometry x="60" y="110" width="90" height="20" as="geometry" />
        </mxCell>
        <mxCell id="z3bIk6jfsUBFybOqAAZT-29" value="?" style="text;html=1;strokeColor=none;fillColor=none;align=left;verticalAlign=middle;whiteSpace=wrap;rounded=0;" parent="z3bIk6jfsUBFybOqAAZT-3" vertex="1">
          <mxGeometry x="30" y="110" width="10" height="20" as="geometry" />
        </mxCell>
        <mxCell id="z3bIk6jfsUBFybOqAAZT-17" value="ImageSettings" style="swimlane;fontStyle=1;align=center;verticalAlign=top;childLayout=stackLayout;horizontal=1;startSize=26;horizontalStack=0;resizeParent=1;resizeParentMax=0;resizeLast=0;collapsible=1;marginBottom=0;" parent="1" vertex="1">
          <mxGeometry x="1130" y="660" width="230" height="230" as="geometry" />
        </mxCell>
        <mxCell id="z3bIk6jfsUBFybOqAAZT-18" value="indentSettings: IndentSettings&#xa;sizeSettings: SizeSettings&#xa;borderSettings: BorderSettings&#xa;caption&#xa;alt&#xa;src&#xa;" style="text;strokeColor=none;fillColor=none;align=left;verticalAlign=top;spacingLeft=4;spacingRight=4;overflow=hidden;rotatable=0;points=[[0,0.5],[1,0.5]];portConstraint=eastwest;fontStyle=0" parent="z3bIk6jfsUBFybOqAAZT-17" vertex="1">
          <mxGeometry y="26" width="230" height="94" as="geometry" />
        </mxCell>
        <mxCell id="z3bIk6jfsUBFybOqAAZT-19" value="" style="line;strokeWidth=1;fillColor=none;align=left;verticalAlign=middle;spacingTop=-1;spacingLeft=3;spacingRight=3;rotatable=0;labelPosition=right;points=[];portConstraint=eastwest;" parent="z3bIk6jfsUBFybOqAAZT-17" vertex="1">
          <mxGeometry y="120" width="230" height="8" as="geometry" />
        </mxCell>
        <mxCell id="z3bIk6jfsUBFybOqAAZT-20" value="getCaption()&#xa;getAlt()&#xa;getSrc()&#xa;setCaption()&#xa;setAlt()&#xa;setSrc()&#xa;&#xa;" style="text;strokeColor=none;fillColor=none;align=left;verticalAlign=top;spacingLeft=4;spacingRight=4;overflow=hidden;rotatable=0;points=[[0,0.5],[1,0.5]];portConstraint=eastwest;fontStyle=0" parent="z3bIk6jfsUBFybOqAAZT-17" vertex="1">
          <mxGeometry y="128" width="230" height="102" as="geometry" />
        </mxCell>
        <mxCell id="z3bIk6jfsUBFybOqAAZT-46" style="edgeStyle=orthogonalEdgeStyle;rounded=0;orthogonalLoop=1;jettySize=auto;html=1;exitX=0;exitY=0.5;exitDx=0;exitDy=0;entryX=1;entryY=0.5;entryDx=0;entryDy=0;endArrow=diamondThin;endFill=1;strokeColor=#000099;" parent="1" source="RT_vrtGyYzo0KyHQsd38-9" target="IYxpVepuhbEYIuZDDsvg-14" edge="1">
          <mxGeometry relative="1" as="geometry">
            <Array as="points">
              <mxPoint x="1480" y="528" />
              <mxPoint x="1480" y="188" />
            </Array>
          </mxGeometry>
        </mxCell>
        <mxCell id="z3bIk6jfsUBFybOqAAZT-47" value="ListSettings" style="swimlane;fontStyle=1;align=center;verticalAlign=top;childLayout=stackLayout;horizontal=1;startSize=26;horizontalStack=0;resizeParent=1;resizeParentMax=0;resizeLast=0;collapsible=1;marginBottom=0;" parent="1" vertex="1">
          <mxGeometry x="160" y="1040" width="180" height="150" as="geometry" />
        </mxCell>
        <mxCell id="z3bIk6jfsUBFybOqAAZT-48" value="colorSettings: ColorSettings&#xa;indentSettings: IndentSettings&#xa;fontSettings: FontSettings&#xa;sizeSettings: SizeSettings&#xa;..." style="text;strokeColor=none;fillColor=none;align=left;verticalAlign=top;spacingLeft=4;spacingRight=4;overflow=hidden;rotatable=0;points=[[0,0.5],[1,0.5]];portConstraint=eastwest;fontStyle=0" parent="z3bIk6jfsUBFybOqAAZT-47" vertex="1">
          <mxGeometry y="26" width="180" height="84" as="geometry" />
        </mxCell>
        <mxCell id="z3bIk6jfsUBFybOqAAZT-49" value="" style="line;strokeWidth=1;fillColor=none;align=left;verticalAlign=middle;spacingTop=-1;spacingLeft=3;spacingRight=3;rotatable=0;labelPosition=right;points=[];portConstraint=eastwest;" parent="z3bIk6jfsUBFybOqAAZT-47" vertex="1">
          <mxGeometry y="110" width="180" height="8" as="geometry" />
        </mxCell>
        <mxCell id="z3bIk6jfsUBFybOqAAZT-50" value="..." style="text;strokeColor=none;fillColor=none;align=left;verticalAlign=top;spacingLeft=4;spacingRight=4;overflow=hidden;rotatable=0;points=[[0,0.5],[1,0.5]];portConstraint=eastwest;fontStyle=0" parent="z3bIk6jfsUBFybOqAAZT-47" vertex="1">
          <mxGeometry y="118" width="180" height="32" as="geometry" />
        </mxCell>
        <mxCell id="z3bIk6jfsUBFybOqAAZT-53" style="edgeStyle=orthogonalEdgeStyle;rounded=0;orthogonalLoop=1;jettySize=auto;html=1;exitX=0;exitY=0.5;exitDx=0;exitDy=0;entryX=1;entryY=0.5;entryDx=0;entryDy=0;endArrow=diamondThin;endFill=1;strokeColor=#336600;" parent="1" edge="1">
          <mxGeometry relative="1" as="geometry">
            <mxPoint x="1511" y="160" as="sourcePoint" />
            <mxPoint x="680" y="615" as="targetPoint" />
            <Array as="points">
              <mxPoint x="1470" y="160" />
              <mxPoint x="1470" y="615" />
            </Array>
          </mxGeometry>
        </mxCell>
        <mxCell id="z3bIk6jfsUBFybOqAAZT-54" style="edgeStyle=orthogonalEdgeStyle;rounded=0;orthogonalLoop=1;jettySize=auto;html=1;exitX=0;exitY=0.5;exitDx=0;exitDy=0;entryX=1;entryY=0.5;entryDx=0;entryDy=0;endArrow=diamondThin;endFill=1;strokeColor=#336600;" parent="1" edge="1">
          <mxGeometry relative="1" as="geometry">
            <mxPoint x="1510" y="315" as="sourcePoint" />
            <mxPoint x="680" y="615" as="targetPoint" />
            <Array as="points">
              <mxPoint x="1470" y="315" />
              <mxPoint x="1470" y="615" />
            </Array>
          </mxGeometry>
        </mxCell>
        <mxCell id="z3bIk6jfsUBFybOqAAZT-55" style="edgeStyle=orthogonalEdgeStyle;rounded=0;orthogonalLoop=1;jettySize=auto;html=1;exitX=0;exitY=0.5;exitDx=0;exitDy=0;entryX=1;entryY=0.5;entryDx=0;entryDy=0;endArrow=diamondThin;endFill=1;strokeColor=#336600;" parent="1" edge="1">
          <mxGeometry relative="1" as="geometry">
            <mxPoint x="1511" y="525" as="sourcePoint" />
            <mxPoint x="680" y="615" as="targetPoint" />
            <Array as="points">
              <mxPoint x="1470" y="525" />
              <mxPoint x="1470" y="615" />
            </Array>
          </mxGeometry>
        </mxCell>
        <mxCell id="z3bIk6jfsUBFybOqAAZT-56" style="edgeStyle=orthogonalEdgeStyle;rounded=0;orthogonalLoop=1;jettySize=auto;html=1;exitX=0;exitY=0.5;exitDx=0;exitDy=0;entryX=1;entryY=0.5;entryDx=0;entryDy=0;endArrow=diamondThin;endFill=1;strokeColor=#336600;" parent="1" edge="1">
          <mxGeometry relative="1" as="geometry">
            <mxPoint x="1511" y="840" as="sourcePoint" />
            <mxPoint x="680" y="615" as="targetPoint" />
            <Array as="points">
              <mxPoint x="1470" y="840" />
              <mxPoint x="1470" y="615" />
            </Array>
          </mxGeometry>
        </mxCell>
        <mxCell id="z3bIk6jfsUBFybOqAAZT-57" style="edgeStyle=orthogonalEdgeStyle;rounded=0;orthogonalLoop=1;jettySize=auto;html=1;exitX=0;exitY=0.5;exitDx=0;exitDy=0;entryX=1;entryY=0.5;entryDx=0;entryDy=0;endArrow=diamondThin;endFill=1;strokeColor=#336600;" parent="1" edge="1">
          <mxGeometry relative="1" as="geometry">
            <mxPoint x="1511" y="1055.0000000000005" as="sourcePoint" />
            <mxPoint x="680" y="615.0000000000002" as="targetPoint" />
            <Array as="points">
              <mxPoint x="1470" y="1055" />
              <mxPoint x="1470" y="615" />
            </Array>
          </mxGeometry>
        </mxCell>
        <mxCell id="z3bIk6jfsUBFybOqAAZT-58" style="edgeStyle=orthogonalEdgeStyle;rounded=0;orthogonalLoop=1;jettySize=auto;html=1;exitX=0;exitY=0.5;exitDx=0;exitDy=0;entryX=1;entryY=0.5;entryDx=0;entryDy=0;endArrow=diamondThin;endFill=1;strokeColor=#336600;" parent="1" edge="1">
          <mxGeometry relative="1" as="geometry">
            <mxPoint x="1511" y="1245.0000000000005" as="sourcePoint" />
            <mxPoint x="680" y="615.0000000000002" as="targetPoint" />
            <Array as="points">
              <mxPoint x="1470" y="1245" />
              <mxPoint x="1470" y="615" />
            </Array>
          </mxGeometry>
        </mxCell>
        <mxCell id="z3bIk6jfsUBFybOqAAZT-60" style="edgeStyle=orthogonalEdgeStyle;rounded=0;orthogonalLoop=1;jettySize=auto;html=1;exitX=0;exitY=0.5;exitDx=0;exitDy=0;entryX=1;entryY=0.5;entryDx=0;entryDy=0;endArrow=diamondThin;endFill=1;strokeColor=#CC0000;" parent="1" edge="1">
          <mxGeometry relative="1" as="geometry">
            <mxPoint x="1509.9999999999995" y="321" as="sourcePoint" />
            <mxPoint x="1359.9999999999995" y="736.0000000000002" as="targetPoint" />
            <Array as="points">
              <mxPoint x="1490" y="321" />
              <mxPoint x="1490" y="736" />
            </Array>
          </mxGeometry>
        </mxCell>
        <mxCell id="z3bIk6jfsUBFybOqAAZT-61" style="edgeStyle=orthogonalEdgeStyle;rounded=0;orthogonalLoop=1;jettySize=auto;html=1;exitX=0;exitY=0.5;exitDx=0;exitDy=0;entryX=1;entryY=0.5;entryDx=0;entryDy=0;endArrow=diamondThin;endFill=1;strokeColor=#CC0000;" parent="1" edge="1">
          <mxGeometry relative="1" as="geometry">
            <mxPoint x="1511" y="846.0000000000002" as="sourcePoint" />
            <mxPoint x="1359.9999999999995" y="736.0000000000002" as="targetPoint" />
            <Array as="points">
              <mxPoint x="1490" y="846" />
              <mxPoint x="1490" y="736" />
            </Array>
          </mxGeometry>
        </mxCell>
        <mxCell id="z3bIk6jfsUBFybOqAAZT-62" style="edgeStyle=orthogonalEdgeStyle;rounded=0;orthogonalLoop=1;jettySize=auto;html=1;exitX=0;exitY=0.5;exitDx=0;exitDy=0;entryX=1;entryY=0.5;entryDx=0;entryDy=0;endArrow=diamondThin;endFill=1;strokeColor=#CC0000;" parent="1" edge="1">
          <mxGeometry relative="1" as="geometry">
            <mxPoint x="1511" y="1251.0000000000005" as="sourcePoint" />
            <mxPoint x="1359.9999999999995" y="736.0000000000002" as="targetPoint" />
            <Array as="points">
              <mxPoint x="1490" y="1251" />
              <mxPoint x="1490" y="736" />
            </Array>
          </mxGeometry>
        </mxCell>
      </root>
    </mxGraphModel>
  </diagram>
  <diagram id="FHMbdmkkFot3UWwouYJi" name="Page-2">
    <mxGraphModel dx="1426" dy="794" grid="1" gridSize="10" guides="1" tooltips="1" connect="1" arrows="1" fold="1" page="1" pageScale="1" pageWidth="2336" pageHeight="1654" math="0" shadow="0">
      <root>
        <mxCell id="iU_vUS6yTW0z1925olYI-0" />
        <mxCell id="iU_vUS6yTW0z1925olYI-1" parent="iU_vUS6yTW0z1925olYI-0" />
        <mxCell id="dXkrXG4-lN16qhWQqTOA-8" value="DefaultGlyphSetting" style="swimlane;fontStyle=1;align=center;verticalAlign=top;childLayout=stackLayout;horizontal=1;startSize=26;horizontalStack=0;resizeParent=1;resizeParentMax=0;resizeLast=0;collapsible=1;marginBottom=0;" vertex="1" parent="iU_vUS6yTW0z1925olYI-1">
          <mxGeometry x="80" y="80" width="240" height="230" as="geometry" />
        </mxCell>
        <mxCell id="dXkrXG4-lN16qhWQqTOA-9" value="- fontSettings&#xa;- color : { hue, saturation, brightness}&#xa;- lightColor : { hue, saturation, brightness}&#xa;- darkColor : { hue, saturation, brightness}&#xa;- brightColor : { hue, saturation, brightness}&#xa;- paddings&#xa;- margin&#xa;- width" style="text;strokeColor=none;fillColor=none;align=left;verticalAlign=top;spacingLeft=4;spacingRight=4;overflow=hidden;rotatable=0;points=[[0,0.5],[1,0.5]];portConstraint=eastwest;fontStyle=0" vertex="1" parent="dXkrXG4-lN16qhWQqTOA-8">
          <mxGeometry y="26" width="240" height="134" as="geometry" />
        </mxCell>
        <mxCell id="dXkrXG4-lN16qhWQqTOA-10" value="" style="line;strokeWidth=1;fillColor=none;align=left;verticalAlign=middle;spacingTop=-1;spacingLeft=3;spacingRight=3;rotatable=0;labelPosition=right;points=[];portConstraint=eastwest;" vertex="1" parent="dXkrXG4-lN16qhWQqTOA-8">
          <mxGeometry y="160" width="240" height="8" as="geometry" />
        </mxCell>
        <mxCell id="dXkrXG4-lN16qhWQqTOA-11" value="- paddingCalculation(fontSettings)&#xa;- marginCalculation( sibling, parent)" style="text;strokeColor=none;fillColor=none;align=left;verticalAlign=top;spacingLeft=4;spacingRight=4;overflow=hidden;rotatable=0;points=[[0,0.5],[1,0.5]];portConstraint=eastwest;fontStyle=0" vertex="1" parent="dXkrXG4-lN16qhWQqTOA-8">
          <mxGeometry y="168" width="240" height="62" as="geometry" />
        </mxCell>
        <mxCell id="cjnB5EUxn2W2gF_GAcIW-0" value="ProjectSettings" style="swimlane;fontStyle=1;align=center;verticalAlign=top;childLayout=stackLayout;horizontal=1;startSize=26;horizontalStack=0;resizeParent=1;resizeParentMax=0;resizeLast=0;collapsible=1;marginBottom=0;" vertex="1" parent="iU_vUS6yTW0z1925olYI-1">
          <mxGeometry x="80" y="360" width="240" height="200" as="geometry" />
        </mxCell>
        <mxCell id="cjnB5EUxn2W2gF_GAcIW-1" value="- projectFontSize&#xa;- projectHeadingFontFamily&#xa;- projectParagraphFontFamily&#xa;- projectFontColor&#xa;- color&#xa;- lightColor : { hue, saturation, brightness}&#xa;- darkColor : { hue, saturation, brightness}&#xa;- brightColor : { hue, saturation, brightness}" style="text;strokeColor=none;fillColor=none;align=left;verticalAlign=top;spacingLeft=4;spacingRight=4;overflow=hidden;rotatable=0;points=[[0,0.5],[1,0.5]];portConstraint=eastwest;fontStyle=0" vertex="1" parent="cjnB5EUxn2W2gF_GAcIW-0">
          <mxGeometry y="26" width="240" height="134" as="geometry" />
        </mxCell>
        <mxCell id="cjnB5EUxn2W2gF_GAcIW-2" value="" style="line;strokeWidth=1;fillColor=none;align=left;verticalAlign=middle;spacingTop=-1;spacingLeft=3;spacingRight=3;rotatable=0;labelPosition=right;points=[];portConstraint=eastwest;" vertex="1" parent="cjnB5EUxn2W2gF_GAcIW-0">
          <mxGeometry y="160" width="240" height="8" as="geometry" />
        </mxCell>
        <mxCell id="cjnB5EUxn2W2gF_GAcIW-3" value="- colorSetCalculation(in color, out)" style="text;strokeColor=none;fillColor=none;align=left;verticalAlign=top;spacingLeft=4;spacingRight=4;overflow=hidden;rotatable=0;points=[[0,0.5],[1,0.5]];portConstraint=eastwest;fontStyle=0" vertex="1" parent="cjnB5EUxn2W2gF_GAcIW-0">
          <mxGeometry y="168" width="240" height="32" as="geometry" />
        </mxCell>
      </root>
    </mxGraphModel>
  </diagram>
</mxfile>
